<svg xmlns="http://www.w3.org/2000/svg" viewBox="0 0 16 16" width="16" height="16">
    <style>
        tspan { white-space:pre }
    </style>
    <path id="c15 " fill="#4e49fd" d="M4.91 6.31L4.91 7.06Q4.61 6.88 4.3 6.78Q3.99 6.69 3.68 6.69Q2.97 6.69 2.59 7.18Q2.2 7.68 2.2 8.57Q2.2 9.46 2.59 
    9.96Q2.97 10.45 3.68 10.45Q3.99 10.45 4.3 10.36Q4.61 10.26 4.91 10.07L4.91 10.81Q4.61 10.97 4.28 11.05Q3.96 11.13 3.6 11.13Q2.61 11.13 2.03 10.43Q1.44 
    9.74 1.44 8.57Q1.44 7.38 2.03 6.69Q2.62 6.01 3.64 6.01Q3.98 6.01 4.3 6.09Q4.61 6.16 4.91 6.31Z" />
    <path id="c15 " fill="#ffffff" d="M6.4 11L6.4 10.26L7.69 10.26L7.69 5.31L6.29 5.62L6.29 4.82L7.69 4.51L8.48 4.51L8.48 10.26L9.77 10.26L9.77 11L6.4 
    11ZM11.37 7.77L11.37 4.51L14.48 4.51L14.48 5.24L12.09 5.24L12.09 6.84Q12.27 6.77 12.44 6.74Q12.61 6.71 12.78 6.71Q13.76 6.71 14.33 7.3Q14.91 7.9 14.91
        8.92Q14.91 9.96 14.32 10.55Q13.73 11.13 12.66 11.13Q12.29 11.13 11.91 11.06Q11.53 10.99 11.12 10.85L11.12 9.96Q11.48 10.18 11.85 10.28Q12.23 10.39 
        12.65 10.39Q13.32 10.39 13.72 9.99Q14.12 9.59 14.12 8.92Q14.12 8.24 13.72 7.84Q13.32 7.45 12.65 7.45Q12.33 7.45 12.01 7.52Q11.7 7.6 11.37 7.77Z" />
</svg>